HIERARCHY
ROOT hip
{
	OFFSET 0.000000 0.000000 0.000000 
	CHANNELS 6 Xposition Yposition Zposition Xrotation Zrotation Yrotation
	JOINT abdomen
	{
		OFFSET 0.000000 3.402643 0.000000 
		CHANNELS 3 Xrotation Zrotation Yrotation
		JOINT chest
		{
			OFFSET 0.000000 8.438565 -0.680529 
			CHANNELS 3 Xrotation Zrotation Yrotation
			JOINT neck
			{
				OFFSET 0.000000 10.207942 -0.272212 
				CHANNELS 3 Xrotation Zrotation Yrotation
				JOINT head
				{
					OFFSET 0.000000 3.130431 0.000000 
					CHANNELS 3 Xrotation Zrotation Yrotation
					End Site
					{
						OFFSET 0.000000 3.130435 0.000000 
					}
				}
			}
			JOINT lCollar
			{
				OFFSET 3.470700 6.669187 -0.816635 
				CHANNELS 3 Yrotation Zrotation Xrotation
				JOINT lShldr
				{
					OFFSET 3.198488 0.000000 0.000000 
					CHANNELS 3 Zrotation Yrotation Xrotation
					JOINT lForeArm
					{
						OFFSET 10.139888 0.000000 0.000000 
						CHANNELS 3 Yrotation Zrotation Xrotation
						JOINT lHand
						{
							OFFSET 8.370511 0.000000 0.000000 
							CHANNELS 3 Zrotation Yrotation Xrotation
							End Site
							{
								OFFSET 4.083176 0.000000 0.000000 
							}
						}
					}
				}
			}
			JOINT rCollar
			{
				OFFSET -3.470700 6.669187 -0.816635 
				CHANNELS 3 Yrotation Zrotation Xrotation
				JOINT rShldr
				{
					OFFSET -3.198488 0.000000 0.000000 
					CHANNELS 3 Zrotation Yrotation Xrotation
					JOINT rForeArm
					{
						OFFSET -10.139888 0.000000 0.000000 
						CHANNELS 3 Yrotation Zrotation Xrotation
						JOINT rHand
						{
							OFFSET -8.370511 0.000000 0.000000 
							CHANNELS 3 Zrotation Yrotation Xrotation
							End Site
							{
								OFFSET -4.083176 0.000000 0.000000 
							}
						}
					}
				}
			}
		}
	}
	JOINT lThigh
	{
		OFFSET 5.308129 -1.633274 1.361059 
		CHANNELS 3 Xrotation Zrotation Yrotation
		JOINT lShin
		{
			OFFSET -2.041588 -20.007561 0.000000 
			CHANNELS 3 Xrotation Zrotation Yrotation
			JOINT lFoot
			{
				OFFSET 0.000000 -19.190928 -1.224953 
				CHANNELS 3 Xrotation Yrotation Zrotation
				End Site
				{
					OFFSET 0.000000 -2.449906 4.627600 
				}
			}
		}
	}
	JOINT rThigh
	{
		OFFSET -5.308129 -1.633274 1.361059 
		CHANNELS 3 Xrotation Zrotation Yrotation
		JOINT rShin
		{
			OFFSET 2.041588 -20.007561 0.000000 
			CHANNELS 3 Xrotation Zrotation Yrotation
			JOINT rFoot
			{
				OFFSET 0.000000 -19.190928 -1.224953 
				CHANNELS 3 Xrotation Yrotation Zrotation
				End Site
				{
					OFFSET 0.000000 -2.449906 4.627600 
				}
			}
		}
	}
}
MOTION
Frames: 6
Frame Time: 0.033333
0.663060 42.483120 78.799965 -1.240234 3.867188 -150.985657 16.005859 5.761718 -4.873047 -13.183594 -1.562500 -6.230735 -9.990234 -3.642578 -9.600229 24.804688 12.119141 -8.857422 -0.742188 8.867188 0.273437 -94.384766 -36.455074 65.384819 -51.953129 -3.359375 -39.736328 13.701172 7.539063 1.523438 9.130859 3.603516 -0.214844 61.845703 23.945313 5.824279 71.367188 3.261719 -42.031250 -10.488281 -13.945313 1.933517 -1.922458 11.104506 2.091970 39.466026 -1.037287 -2.584956 -37.840271 11.342137 1.664166 -36.813969 -18.396952 -8.072717 45.453903 0.341764 2.453947 -10.527025 4.450648 7.989668 
0.493403 42.302006 78.270721 0.166016 4.570313 -150.820297 14.755858 5.810546 -5.615234 -13.535156 -1.035156 -6.933770 -8.095704 -2.197266 -8.994140 25.869141 11.923828 -8.447267 -0.058594 9.228517 0.341797 -91.806641 -36.708981 64.013672 -54.658203 -3.281250 -40.614677 10.439453 7.734375 1.036471 7.900391 2.021484 -0.098001 57.119137 24.980469 8.750001 71.474609 3.300781 -40.029865 -9.726563 -13.466796 1.804368 -0.557318 12.558874 1.640884 39.830303 -1.030077 -2.785910 -38.785999 11.973111 2.521188 -35.270248 -17.527267 -9.836213 46.505749 -0.009604 2.690404 -11.661727 4.677265 7.975167 
0.240246 41.995754 77.572670 2.109375 4.736299 -151.512726 13.857422 5.859375 -6.337891 -14.062501 -0.683594 -7.636718 -5.361328 -0.703125 -7.871213 27.285156 11.376953 -7.851561 0.439453 9.755859 0.419922 -86.425781 -36.630859 60.970734 -59.033203 -3.447266 -42.772846 8.955078 6.220703 0.751953 5.263672 -0.283203 -0.146436 51.396488 28.779295 11.967592 72.363281 3.222656 -38.095699 -8.925781 -13.173828 1.484375 2.235833 14.109236 2.615961 40.723232 -0.954140 -2.457052 -39.522968 11.895610 2.757770 -33.815048 -16.443213 -9.875971 48.778187 0.156129 2.892032 -13.280065 4.874593 8.398708 
-0.041268 41.503918 76.767105 4.384766 4.394531 -153.095703 13.476563 5.683593 -6.942391 -14.589844 -0.673828 -8.164063 -2.480469 0.468750 -6.376944 28.867189 10.468750 -7.058773 1.474609 10.468750 0.390625 -79.667969 -36.738281 55.697285 -64.287109 -3.447265 -43.720116 8.750000 6.250000 0.595703 1.582031 -3.789044 0.108067 44.492188 35.058598 13.212892 74.833984 3.134766 -37.607422 -9.013672 -11.787109 1.296835 5.048116 15.213709 4.479620 43.188976 -1.022668 -2.417811 -39.856464 11.294913 2.092575 -33.131996 -15.252417 -8.303408 52.446869 -0.185484 2.895441 -14.515236 4.354282 8.390510 
-0.323023 40.777145 75.887817 6.669922 3.164063 -155.390625 13.623047 5.283204 -7.440508 -15.117188 -1.025391 -8.349609 -0.332031 1.513672 -4.345702 30.429684 9.218750 -5.927734 2.285156 11.894532 0.515565 -71.074219 -36.289063 46.546955 -69.042969 -3.330078 -44.950603 7.500000 6.103515 0.498047 -2.421875 -6.787109 0.245295 32.011719 42.705082 7.584747 79.853516 3.193359 -36.104057 -9.267578 -9.697266 1.082340 7.963854 15.315489 6.684304 47.052963 -0.496038 -2.603646 -39.635998 10.594931 1.470158 -34.254803 -13.885408 -4.577038 58.254150 -0.536911 3.136504 -14.725716 3.461132 7.950618 
-0.583541 39.789013 74.973404 8.427734 1.406250 -158.554459 14.326172 4.736328 -7.431642 -15.292968 -2.080078 -8.349962 0.781250 1.845699 -2.441097 31.289063 7.792968 -4.472655 2.783203 12.255859 0.593630 -59.208984 -35.292969 34.711155 -72.119141 -3.388672 -47.060551 4.453125 5.810547 0.146484 -6.328125 -10.400391 0.429688 15.898438 47.685551 -7.795510 85.595703 2.978516 -31.279808 -9.111327 -5.898438 0.555639 10.252350 15.018819 8.752335 51.965687 -0.311404 -2.930463 -38.182320 9.795634 0.170250 -37.260944 -13.016128 -0.115080 65.985413 -0.898498 3.090068 -13.044744 3.027994 7.649121 
